<svg width="580" height="400" xmlns="http://www.w3.org/2000/svg">
 <!-- Created with Method Draw - http://github.com/duopixel/Method-Draw/ -->

 <g>
  <title>background</title>
  <rect fill="#fff" id="canvas_background" height="402" width="582" y="-1" x="-1"/>
  <g display="none" overflow="visible" y="0" x="0" height="100%" width="100%" id="canvasGrid">
   <rect fill="url(#gridpattern)" stroke-width="0" y="0" x="0" height="100%" width="100%"/>
  </g>
 </g>
 <g>
  <title>Layer 1</title>
  <g id="svg_5">
   <path id="svg_4" d="m237.82428,4.641222c-35.935913,-0.192728 -70.921234,34.882887 -54.949661,78.438254l-60.273476,0a38.027435,38.544594 0 0 0 -38.027466,38.544609l0,38.544586a19.013718,19.272297 0 0 0 19.013725,19.272278l171.123413,0l0,-57.816864l38.027527,0l0,57.816864l171.123413,0a19.013718,19.272297 0 0 0 19.013763,-19.272278l0,-38.544586a38.027435,38.544594 0 0 0 -38.027466,-38.544609l-60.273499,0c22.246033,-63.020374 -61.414276,-107.539436 -100.012177,-53.191544l-10.837799,14.646969l-10.837769,-15.032425c-11.978638,-17.152314 -28.520599,-24.668526 -45.062531,-24.861254m-1.140869,39.893679c16.922241,0 25.478424,20.814053 13.499756,32.955578c-11.978638,12.141617 -32.513397,3.469009 -32.513397,-13.6833a19.013718,19.272297 0 0 1 19.013641,-19.272278m114.082336,0c16.922272,0 25.478394,20.814053 13.499695,32.955578c-11.978638,12.141617 -32.513428,3.469009 -32.513428,-13.6833a19.013718,19.272297 0 0 1 19.013733,-19.272278m-247.178345,154.178341l0,154.178421a38.027435,38.544594 0 0 0 38.027435,38.544525l304.219543,0a38.027435,38.544594 0 0 0 38.027374,-38.544525l0,-154.178421l-171.123413,0l0,154.178421l-38.027527,0l0,-154.178421l-171.123413,0z"/>
  </g>
  <line stroke-linecap="undefined" stroke-linejoin="undefined" id="svg_9" y2="322.289449" x2="315.717656" y1="322" x1="272.513071" fill-opacity="null" stroke-opacity="null" stroke-width="7.5" stroke="#000" fill="none"/>
 </g>
</svg>